
<svg class="floppy" id="floppy" fill="none" height="39" viewBox="0 0 39 39" width="39" xmlns="http://www.w3.org/2000/svg">

<g fill="#00cc14">
<path d="m0 0h3.00001v3h-3.00001z"/><path d="m0 3h3.00001v3h-3.00001z"/><path d="m0 6h3.00001v3h-3.00001z"/><path d="m0 9h3.00001v3h-3.00001z"/><path d="m0 12h3.00001v3h-3.00001z"/><path d="m0 15h3.00001v3h-3.00001z"/><path d="m0 18h3.00001v3h-3.00001z"/><path d="m0 21h3.00001v3h-3.00001z"/><path d="m0 24h3.00001v3h-3.00001z"/><path d="m0 27h3.00001v3h-3.00001z"/><path d="m0 30h3.00001v3h-3.00001z"/><path d="m0 33h3.00001v3h-3.00001z"/><path d="m0 36h3.00001v3h-3.00001z"/><path d="m33 0h3v3.00001h-3z" transform="matrix(0 1 -1 0 33 -33)"/><path d="m30.0031 0h3v3.00001h-3z" transform="matrix(0 1 -1 0 30.0031 -30.0031)"/><path d="m26.9998 0h3v3.00001h-3z" transform="matrix(0 1 -1 0 26.9998 -26.9998)"/><path d="m23.9998 0h3v3.00001h-3z" transform="matrix(0 1 -1 0 23.9998 -23.9998)"/><path d="m20.999 0h3v3.00001h-3z" transform="matrix(0 1 -1 0 20.999 -20.999)"/><path d="m17.9998 0h3v3.00001h-3z" transform="matrix(0 1 -1 0 17.9998 -17.9998)"/><path d="m14.999 0h3v3.00001h-3z" transform="matrix(0 1 -1 0 14.999 -14.999)"/><path d="m11.9999 0h3v3.00001h-3z" transform="matrix(0 1 -1 0 11.9999 -11.9999)"/><path d="m8.99609 0h3v3.00001h-3z" transform="matrix(0 1 -1 0 8.99609 -8.99609)"/><path d="m5.99994 0h3v3.00001h-3z" transform="matrix(0 1 -1 0 5.99994 -5.99994)"/><path d="m36.0008 3h3v3.00001h-3z" transform="matrix(0 1 -1 0 39.0008 -33.0008)"/><path d="m8.99609 6h3v3.00001h-3z" transform="matrix(0 1 -1 0 14.99609 -2.99609)"/><path d="m8.99609 3h3v3.00001h-3z" transform="matrix(0 1 -1 0 11.99609 -5.99609)"/><path d="m8.99609 9h3v3.00001h-3z" transform="matrix(0 1 -1 0 17.99609 .00391)"/><path d="m30.0031 6h3v3.00001h-3z" transform="matrix(0 1 -1 0 36.0031 -24.0031)"/><path d="m30.0031 3h3v3.00001h-3z" transform="matrix(0 1 -1 0 33.0031 -27.0031)"/><path d="m30.0031 9h3v3.00001h-3z" transform="matrix(0 1 -1 0 39.0031 -21.0031)"/><path d="m23.9998 6h3v3.00001h-3z" transform="matrix(0 1 -1 0 29.9998 -17.9998)"/><path d="m23.9998 3h3v3.00001h-3z" transform="matrix(0 1 -1 0 26.9998 -20.9998)"/><path d="m23.9998 9h3v3.00001h-3z" transform="matrix(0 1 -1 0 32.9998 -14.9998)"/><path d="m30.0031 12h3v3.00001h-3z" transform="matrix(0 1 -1 0 42.0031 -18.0031)"/><path d="m26.9998 12h3v3.00001h-3z" transform="matrix(0 1 -1 0 38.9998 -14.9998)"/><path d="m23.9998 12h3v3.00001h-3z" transform="matrix(0 1 -1 0 35.9998 -11.9998)"/><path d="m20.999 12h3v3.00001h-3z" transform="matrix(0 1 -1 0 32.999 -8.999)"/><path d="m17.9998 12h3v3.00001h-3z" transform="matrix(0 1 -1 0 29.9998 -5.9998)"/><path d="m14.999 12h3v3.00001h-3z" transform="matrix(0 1 -1 0 26.999 -2.999)"/><path d="m11.9999 12h3v3.00001h-3z" transform="matrix(0 1 -1 0 23.9999 .0001)"/><path d="m8.99609 12h3v3.00001h-3z" transform="matrix(0 1 -1 0 20.99609 3.00391)"/><path d="m33 21h3v3.00001h-3z" transform="matrix(0 1 -1 0 54 -12)"/><path d="m30.0031 21h3v3.00001h-3z" transform="matrix(0 1 -1 0 51.0031 -9.0031)"/><path d="m26.9998 21h3v3.00001h-3z" transform="matrix(0 1 -1 0 47.9998 -5.9998)"/><path d="m23.9998 21h3v3.00001h-3z" transform="matrix(0 1 -1 0 44.9998 -2.9998)"/><path d="m20.999 21h3v3.00001h-3z" transform="matrix(0 1 -1 0 41.999 .001)"/><path d="m17.9998 21h3v3.00001h-3z" transform="matrix(0 1 -1 0 38.9998 3.0002)"/><path d="m14.999 21h3v3.00001h-3z" transform="matrix(0 1 -1 0 35.999 6.001)"/><path d="m11.9999 21h3v3.00001h-3z" transform="matrix(0 1 -1 0 32.9999 9.0001)"/><path d="m8.99609 21h3v3.00001h-3z" transform="matrix(0 1 -1 0 29.99609 12.00391)"/><path d="m33 24h3v3.00001h-3z" transform="matrix(0 1 -1 0 57 -9)"/><path d="m8.99609 24h3v3.00001h-3z" transform="matrix(0 1 -1 0 32.99609 15.00391)"/><path d="m33 27h3v3.00001h-3z" transform="matrix(0 1 -1 0 60 -6)"/><path d="m8.99609 27h3v3.00001h-3z" transform="matrix(0 1 -1 0 35.99609 18.00391)"/><path d="m33 30h3v3.00001h-3z" transform="matrix(0 1 -1 0 63 -3)"/><path d="m8.99609 30h3v3.00001h-3z" transform="matrix(0 1 -1 0 38.99609 21.00391)"/><path d="m8.99609 33h3v3.00001h-3z" transform="matrix(0 1 -1 0 41.99609 24.00391)"/><path d="m33 33h3v3.00001h-3z" transform="matrix(0 1 -1 0 66 0)"/><path d="m36.0008 36h3v3.00001h-3z" transform="matrix(0 1 -1 0 72.0008 -.0008)"/><path d="m33 36h3v3.00001h-3z" transform="matrix(0 1 -1 0 69 3)"/><path d="m30.0031 36h3v3.00001h-3z" transform="matrix(0 1 -1 0 66.0031 5.9969)"/><path d="m26.9998 36h3v3.00001h-3z" transform="matrix(0 1 -1 0 62.9998 9.0002)"/><path d="m23.9998 36h3v3.00001h-3z" transform="matrix(0 1 -1 0 59.9998 12.0002)"/><path d="m20.999 36h3v3.00001h-3z" transform="matrix(0 1 -1 0 56.999 15.001)"/><path d="m17.9998 36h3v3.00001h-3z" transform="matrix(0 1 -1 0 53.9998 18.0002)"/><path d="m14.999 36h3v3.00001h-3z" transform="matrix(0 1 -1 0 50.999 21.001)"/><path d="m11.9999 36h3v3.00001h-3z" transform="matrix(0 1 -1 0 47.9999 24.0001)"/><path d="m8.99609 36h3v3.00001h-3z" transform="matrix(0 1 -1 0 44.99609 27.00391)"/><path d="m5.99994 36h3v3.00001h-3z" transform="matrix(0 1 -1 0 41.99994 30.00006)"/><path d="m39 39h3.00001v3h-3.00001z" transform="matrix(-1 0 0 -1 78 78)"/><path d="m39 36h3.00001v3h-3.00001z" transform="matrix(-1 0 0 -1 78 72)"/><path d="m39 33h3.00001v3h-3.00001z" transform="matrix(-1 0 0 -1 78 66)"/><path d="m39 30h3.00001v3h-3.00001z" transform="matrix(-1 0 0 -1 78 60)"/><path d="m39 27h3.00001v3h-3.00001z" transform="matrix(-1 0 0 -1 78 54)"/><path d="m39 24h3.00001v3h-3.00001z" transform="matrix(-1 0 0 -1 78 48)"/><path d="m39 21h3.00001v3h-3.00001z" transform="matrix(-1 0 0 -1 78 42)"/><path d="m39 18h3.00001v3h-3.00001z" transform="matrix(-1 0 0 -1 78 36)"/><path d="m39 15h3.00001v3h-3.00001z" transform="matrix(-1 0 0 -1 78 30)"/><path d="m39 12h3.00001v3h-3.00001z" transform="matrix(-1 0 0 -1 78 24)"/><path d="m39 9h3.00001v3h-3.00001z" transform="matrix(-1 0 0 -1 78 18)"/>
</g>
</svg>