<svg  height="36" viewBox="0 0 39 36" width="39" xmlns="http://www.w3.org/2000/svg" xmlns:xlink="http://www.w3.org/1999/xlink">

<!-- <clipPath id="heart" >
<path d="m0 0h39v36h-39z"/>
</clipPath> -->


<g id="heart">
<path fill="var(--contour)" class="contour" d="m12 6h-3v3h3zm3 0h-3v3h3zm-6 3h-3v3h3zm0 3h-3v3h3zm0 3h-3v3h3zm9-9h-3v3h3zm-6 12h-3v3h3zm3 3h-3v3h3zm3 3h-3v3h3zm9-18h3v3h-3zm-3 0h3v3h-3zm6 3h3v3h-3zm0 3h3v3h-3zm0 3h3v3h-3zm-9-9h3v3h-3zm6 12h3v3h-3zm-3 3h3v3h-3zm-3 3h3v3h-3zm0 3h-3v3h3zm0-18h-3v3h3z"/>
<path fill="var(--transparent-color)" class="main-body" d="m12 9h-3v3h3zm3 3h-3v3h3zm3-3h-3v3h3zm-6 6h-3v3h3zm3 0h-3v3h3zm0 3h-3v3h3zm3-6h-3v3h3zm0 9h-3v3h3zm0-3h-3v3h3zm9-9h3v3h-3zm-3 0h3v3h-3zm3 3h3v3h-3zm-3 0h3v3h-3zm-3-3h3v3h-3zm6 6h3v3h-3zm-3 0h3v3h-3zm0 3h3v3h-3zm-3-6h3v3h-3zm0 9h3v3h-3zm0-3h3v3h-3zm0 3h-3v3h3zm0 3h-3v3h3z" />
<!-- <path fill="var(--transparent-color)" class="core" d="m18 15h-3v3h3zm3 0h3v3h-3zm0 0h-3v3h3zm0-3h-3v3h3zm0 6h-3v3h3z" /> -->
<!-- <path fill="none" class="spark" d="m36 13h3v3h-3zm-9 14h3v3h-3zm-9 6h3v3h-3zm-9-6h3v3h-3zm15-27h3v3h-3zm9 3h3v3h-3zm-30 0h3v3h-3zm9-3h3v3h-3zm-12 13h3v3h-3z"/> -->
</g>

</svg>